<svg xmlns="http://www.w3.org/2000/svg" viewBox="0 0 64 64" role="img" aria-label="FlowerBox CRM">
  <defs>
    <linearGradient id="bg" x1="10" y1="6" x2="54" y2="58" gradientUnits="userSpaceOnUse">
      <stop offset="0" stop-color="#fb7185"/>
      <stop offset="1" stop-color="#e11d48"/>
    </linearGradient>
  </defs>
  <rect x="4" y="4" width="56" height="56" rx="14" fill="url(#bg)"/>
  <path d="M20 47V17h21.5v7H28v5.2h11.6V36H28v11h-8Z" fill="#fff"/>
  <path d="M38 47V17h6.4c6.1 0 10 3.1 10 8.2 0 3.1-1.7 5.5-4.5 6.5 3.3 1 5.3 3.6 5.3 7.1 0 5.2-4 8.2-10.6 8.2H38Zm7.8-18.1c1.6 0 2.6-.9 2.6-2.5 0-1.5-1-2.4-2.6-2.4H46v4.9h-.2Zm.8 11.7c1.8 0 2.9-1 2.9-2.7s-1.1-2.7-2.9-2.7H46v5.4h.6Z" fill="#fff"/>
  <path d="M31.2 11.6c4.8.6 7.5 3.2 8.1 7.7-4.6-.2-7.3-2.8-8.1-7.7Z" fill="#86efac"/>
</svg>
