<svg xmlns="http://www.w3.org/2000/svg" viewBox="0 0 64 64" role="img" aria-label="FlowerBox CRM">
  <defs>
    <linearGradient id="bg" x1="10" y1="6" x2="54" y2="58" gradientUnits="userSpaceOnUse">
      <stop offset="0" stop-color="#fff1f2"/>
      <stop offset="1" stop-color="#ffe4e6"/>
    </linearGradient>
    <linearGradient id="petal" x1="18" y1="12" x2="46" y2="52" gradientUnits="userSpaceOnUse">
      <stop offset="0" stop-color="#fb7185"/>
      <stop offset="1" stop-color="#e11d48"/>
    </linearGradient>
    <linearGradient id="leaf" x1="30" y1="34" x2="45" y2="52" gradientUnits="userSpaceOnUse">
      <stop offset="0" stop-color="#34d399"/>
      <stop offset="1" stop-color="#059669"/>
    </linearGradient>
  </defs>
  <rect x="4" y="4" width="56" height="56" rx="16" fill="url(#bg)"/>
  <circle cx="32" cy="32" r="21" fill="#ffffff"/>
  <path d="M32 15c4 5 4 9 0 13-4-4-4-8 0-13Z" fill="url(#petal)"/>
  <path d="M49 32c-5 4-9 4-13 0 4-4 8-4 13 0Z" fill="url(#petal)"/>
  <path d="M32 49c-4-5-4-9 0-13 4 4 4 8 0 13Z" fill="url(#petal)"/>
  <path d="M15 32c5-4 9-4 13 0-4 4-8 4-13 0Z" fill="url(#petal)"/>
  <path d="M44 20c-.7 6-3.6 9-9 9 0-5.4 3-8.3 9-9Z" fill="#f43f5e"/>
  <path d="M44 44c-6-.7-9-3.6-9-9 5.4 0 8.3 3 9 9Z" fill="#f43f5e"/>
  <path d="M20 44c.7-6 3.6-9 9-9 0 5.4-3 8.3-9 9Z" fill="#f43f5e"/>
  <path d="M20 20c6 .7 9 3.6 9 9-5.4 0-8.3-3-9-9Z" fill="#f43f5e"/>
  <circle cx="32" cy="32" r="7" fill="#facc15"/>
  <circle cx="32" cy="32" r="3.2" fill="#f59e0b"/>
  <path d="M36 43c5.8-.7 9.7 1.4 11.7 6.2-5.3 1.4-9.2-.7-11.7-6.2Z" fill="url(#leaf)"/>
</svg>
